<svg width="23.287" height="22.1" fill="none" version="1.1" viewBox="0 0 23.287 22.1" xmlns="http://www.w3.org/2000/svg">
<path d="m23.287 11.577c0 4.6701-2.7671 8.6964-6.7501 10.523 1.6819-1.3855 2.7529-3.4871 2.7529-5.8391 0-4.1318-3.3063-7.4918-7.4202-7.5755-0.0546-0.00376-0.1045-0.00376-0.1591-0.00376s-0.1044 0-0.159 0.00376c0.23402 3.6504-2.9011 6.9209-3.1984 6.0873l-1.0193-2.8576c-0.80521-2.2574-0.7749 8.1082-2.258 5.9421-2.8588-4.1752 0.23495 4.0839-2.1618 4.0839-4.275-5.408-1.8533-6.9096-2.7799-10.364-0.82803-3.0871 2.4768-2.889 1.9955-6.8995 2.1008-3.5662 6.1762-4.4454 9.5809-4.677 4.0766 2.9653 5.9514-2.1789 8.1854 3.3911 1.8774 0.2221 3.3911 4.9892 3.3911 8.1855z" fill="#000" />
</svg>